# xmcd
#
# Track frame offsets: 
#        150
#        26050
#        47322
#        68715
#        89316
#        113286
#        133568
#        155412
#        175213
#        193075
#
# Disc length: 2883 seconds
#
# Revision: 0
# Processed by: cddbd v1.5.2PL0 Copyright (c) Steve Scherf et al.
# Submitted via: ExactAudioCopyFreeDBPlugin 1.0
#
DISCID=760b410a
DTITLE=ANTHEM - GYPSY WAYS
DYEAR=2019
DGENRE=HEAVY METAL
TTITLE0=GYPSY WAYS (WIN, LOSE OR DRAW)
TTITLE1=LOVE IN VAIN
TTITLE2=BAD HABITS DIE HARD
TTITLE3=LEGAL KILLING
TTITLE4=CRYIN’ HEART
TTITLE5=SILENT CHILD
TTITLE6=MIDNIGHT SUN
TTITLE7=SHOUT IT OUT!
TTITLE8=FINAL RISK
TTITLE9=NIGHT STALKER
EXTD=
EXTT0=
EXTT1=
EXTT2=
EXTT3=
EXTT4=
EXTT5=
EXTT6=
EXTT7=
EXTT8=
EXTT9=
PLAYORDER=
